<svg width="15" height="15" viewBox="0 0 15 15" fill="none" xmlns="http://www.w3.org/2000/svg">
<path d="M0.833496 10.8334L4.65516 7.01171C5.306 6.36107 6.361 6.36107 7.01183 7.01171L10.8335 10.8334M9.16683 9.16671L10.4885 7.84504C11.1393 7.1944 12.1943 7.1944 12.8452 7.84504L14.1668 9.16671M9.16683 4.16671H9.17516M2.50016 14.1667H12.5002C13.4206 14.1667 14.1668 13.4205 14.1668 12.5V2.50004C14.1668 1.57957 13.4206 0.833374 12.5002 0.833374H2.50016C1.57969 0.833374 0.833496 1.57957 0.833496 2.50004V12.5C0.833496 13.4205 1.57969 14.1667 2.50016 14.1667L0.833496 10.8334" stroke="#6B7280" stroke-width="1.66667" stroke-linecap="round" stroke-linejoin="round"/>
</svg>
